<?xml version="1.0" standalone="no"?>
<!DOCTYPE svg PUBLIC "-//W3C//DTD SVG 20010904//EN"
 "http://www.w3.org/TR/2001/REC-SVG-20010904/DTD/svg10.dtd">
<svg version="1.0" xmlns="http://www.w3.org/2000/svg"
 width="652.000000pt" height="756.000000pt" viewBox="0 0 652.000000 756.000000"
 preserveAspectRatio="xMidYMid meet">

<g transform="translate(0.000000,756.000000) scale(0.100000,-0.100000)"
fill="#0084ff" stroke="none">
<path d="M1645 7503 c-185 -25 -531 -128 -593 -176 -7 -6 -35 -21 -63 -33 -58
-27 -199 -124 -199 -136 0 -5 -4 -7 -9 -4 -12 8 -147 -108 -143 -123 1 -7 -2
-10 -8 -6 -16 10 -178 -165 -173 -186 2 -5 -1 -8 -6 -6 -13 3 -72 -74 -64 -86
3 -5 2 -7 -3 -4 -10 6 -87 -101 -100 -138 -4 -11 -13 -27 -20 -35 -6 -8 -24
-44 -39 -80 -14 -36 -32 -78 -40 -95 -17 -38 -50 -166 -69 -272 -30 -161 -36
-355 -51 -1673 -3 -245 -8 -587 -11 -760 -16 -783 -20 -1095 -19 -1505 1 -406
3 -449 23 -555 60 -318 159 -545 345 -793 83 -111 283 -309 387 -384 95 -67
226 -147 262 -158 13 -4 25 -10 28 -14 18 -22 255 -118 380 -154 174 -50 258
-67 480 -98 89 -13 292 -7 390 10 202 37 530 130 530 152 0 6 4 8 9 4 12 -7
61 15 61 27 0 5 4 7 9 3 18 -11 258 116 254 134 -2 6 4 8 12 5 9 -4 15 0 15
10 0 9 6 17 13 17 6 1 17 2 22 3 22 3 94 59 88 69 -4 6 -1 7 7 2 7 -4 15 -4
19 1 3 5 15 14 26 21 11 6 19 16 17 22 -1 6 1 10 5 10 20 -3 34 3 57 24 13 12
44 37 68 55 102 78 175 134 195 151 13 11 27 21 32 23 6 1 34 22 63 46 99 80
184 147 213 167 16 11 39 30 52 43 13 12 28 22 33 22 6 0 10 4 10 8 0 5 12 14
26 21 16 7 24 17 20 26 -3 9 0 12 8 9 8 -3 30 8 49 25 19 17 38 31 42 31 6 0
112 86 125 101 3 3 15 11 27 18 13 6 22 17 20 24 -1 7 5 11 13 9 8 -2 19 3 25
10 5 7 21 21 35 30 78 54 122 86 152 113 18 17 51 42 74 58 22 15 63 46 91 70
48 41 74 61 141 110 17 13 28 27 24 31 -4 4 -2 6 4 4 13 -3 183 121 220 161
13 14 24 22 24 18 0 -7 51 32 293 220 53 42 97 80 97 85 0 5 4 7 8 4 8 -5 32
14 171 142 126 117 233 239 312 358 37 54 67 104 68 109 2 6 8 17 16 25 18 21
105 205 105 224 0 8 4 17 9 21 24 14 101 303 125 464 20 133 20 356 1 496 -61
434 -282 882 -574 1164 -93 89 -107 101 -120 101 -7 0 -10 3 -7 8 12 19 -422
320 -440 304 -4 -4 -4 -2 -1 5 4 6 -12 22 -40 39 -27 16 -56 33 -65 39 -9 5
-48 31 -87 58 -39 26 -73 47 -76 47 -3 0 -18 8 -33 19 -69 48 -213 141 -217
141 -3 0 -56 33 -117 73 -132 85 -167 108 -190 122 -95 58 -143 89 -224 142
-51 34 -115 74 -141 89 -26 16 -51 32 -54 37 -3 5 -9 8 -13 8 -3 -1 -39 20
-79 46 -40 27 -81 53 -92 60 -11 7 -89 56 -174 110 -85 54 -166 105 -180 113
-14 8 -27 18 -29 23 -2 4 -8 7 -14 7 -6 0 -26 11 -44 25 -18 14 -35 25 -39 25
-7 0 -61 38 -89 63 -11 9 -25 17 -32 17 -7 0 -19 6 -26 13 -19 18 -80 58 -139
91 -19 10 -36 22 -39 26 -3 4 -20 15 -39 25 -19 9 -55 31 -81 49 -50 34 -65
43 -145 86 -87 47 -99 54 -119 70 -10 8 -19 14 -20 12 0 -2 -30 10 -66 26
-141 64 -308 111 -481 136 -99 15 -410 20 -494 9z m1830 -2268 c259 -6 543
-30 825 -70 136 -19 531 -94 600 -114 19 -5 82 -23 140 -39 58 -16 114 -32
125 -36 11 -5 34 -12 50 -18 59 -20 141 -51 182 -70 24 -10 48 -18 53 -18 10
0 61 -24 110 -52 26 -15 75 -32 83 -30 4 1 7 -2 7 -8 0 -9 14 -18 100 -62 14
-7 31 -21 38 -30 7 -10 19 -18 26 -18 7 0 23 -11 36 -25 13 -14 25 -23 27 -21
2 2 14 -6 27 -18 13 -11 38 -35 57 -52 42 -38 128 -131 152 -164 110 -157 177
-316 197 -465 28 -214 -9 -510 -79 -625 -64 -106 -91 -153 -91 -160 0 -5 -6
-15 -12 -22 -24 -25 -78 -97 -78 -102 0 -3 -8 -14 -17 -25 -10 -10 -28 -32
-41 -49 -13 -17 -51 -59 -86 -94 -34 -35 -63 -67 -64 -73 -1 -5 -6 -10 -11
-10 -5 0 -23 -12 -40 -27 -17 -16 -35 -28 -41 -28 -5 0 -9 -5 -7 -12 1 -6 -10
-18 -25 -25 -16 -8 -28 -18 -28 -24 0 -5 -5 -9 -12 -9 -13 0 -91 -50 -96 -62
-2 -4 -19 -12 -39 -19 -22 -7 -31 -14 -23 -19 8 -5 5 -9 -9 -13 -12 -3 -22 -5
-24 -4 -1 0 -21 -12 -44 -26 -24 -15 -48 -27 -55 -27 -7 0 -24 -9 -38 -20 -14
-11 -31 -20 -38 -20 -8 0 -27 -9 -43 -21 -16 -11 -29 -18 -29 -14 0 3 -19 -5
-42 -19 -24 -13 -72 -34 -108 -47 -36 -12 -69 -26 -75 -30 -5 -4 -27 -10 -47
-14 -21 -4 -38 -12 -38 -18 0 -6 -3 -8 -6 -5 -3 4 -31 -2 -62 -12 -31 -10 -77
-23 -102 -30 -25 -7 -64 -19 -88 -26 -23 -8 -55 -14 -70 -14 -15 0 -45 -6 -67
-14 -22 -8 -64 -17 -94 -20 -29 -4 -57 -9 -61 -11 -4 -3 -23 -7 -41 -10 -19
-2 -79 -11 -134 -20 -226 -35 -378 -54 -515 -65 -80 -6 -152 -13 -160 -15 -8
-2 -52 -7 -97 -10 -46 -3 -93 -8 -105 -10 -12 -3 -123 -8 -248 -11 l-226 -7
-1 23 c-1 13 13 49 31 79 54 90 77 141 70 153 -4 6 -3 8 3 5 10 -6 40 50 35
66 -1 4 2 7 6 7 4 0 16 14 26 30 14 25 15 34 6 45 -8 9 -8 15 -2 15 6 0 12 -5
14 -12 4 -11 31 39 141 257 22 44 51 98 65 120 14 22 24 40 22 40 -2 0 3 11
12 25 38 63 128 232 224 425 58 116 113 221 122 235 10 13 11 21 5 16 -17 -10
-16 -6 7 40 13 24 18 29 14 14 l-6 -25 18 24 c10 15 17 39 16 60 -1 20 3 43 9
51 8 11 9 7 5 -18 -4 -20 -2 -31 4 -27 6 3 10 13 10 21 0 8 9 23 20 34 22 22
26 41 8 37 -6 -1 -13 7 -15 18 -3 16 -2 17 6 5 8 -12 11 -12 11 -1 0 7 6 11
15 7 15 -5 35 21 35 46 -1 8 -6 6 -15 -6 -8 -11 -15 -15 -15 -9 0 16 30 44 39
38 12 -7 34 41 26 56 -5 7 -4 10 2 6 6 -4 22 16 37 46 15 28 35 66 45 82 10
17 62 116 116 220 54 105 103 193 109 197 24 16 14 -25 -50 -207 -36 -105 -70
-206 -76 -225 -5 -19 -16 -49 -24 -67 -8 -17 -14 -36 -14 -42 0 -6 -8 -30 -19
-54 -27 -62 -81 -229 -81 -252 0 -11 -6 -29 -13 -40 -8 -11 -19 -42 -26 -70
-7 -27 -17 -59 -22 -70 -6 -15 -29 -88 -44 -145 -1 -3 -4 -12 -8 -20 -20 -51
-60 -167 -61 -180 -1 -9 -5 -20 -8 -25 -14 -23 -148 -433 -154 -472 -4 -24
-10 -43 -14 -43 -4 0 -10 -9 -13 -20 -3 -11 -2 -18 3 -15 4 3 13 -2 20 -10 8
-9 21 -13 31 -10 12 4 21 1 25 -9 3 -9 16 -16 29 -16 12 0 28 -7 35 -15 9 -10
9 -15 1 -15 -6 0 -11 -3 -11 -7 0 -18 275 0 492 32 571 83 1139 306 1429 562
97 85 203 217 194 241 -3 7 0 10 5 7 10 -6 35 42 31 59 -1 4 4 15 11 23 6 8
13 35 14 60 1 25 7 49 15 54 10 6 13 48 14 186 0 160 -2 185 -23 247 -46 136
-102 228 -203 333 -105 110 -198 183 -231 183 -10 0 -18 4 -18 10 0 5 -7 7
-15 4 -11 -5 -13 -2 -9 10 4 11 0 16 -14 16 -11 0 -25 6 -32 14 -6 8 -19 12
-27 9 -11 -4 -14 -2 -9 5 5 8 0 12 -14 12 -11 0 -23 7 -26 15 -4 10 -13 13
-25 10 -11 -4 -19 -2 -19 5 0 6 -6 10 -12 7 -7 -2 -40 11 -73 29 -34 18 -78
36 -98 39 -21 4 -53 13 -72 21 -19 8 -44 14 -55 14 -11 0 -20 4 -20 8 0 10
-82 31 -137 34 -26 2 -38 7 -33 13 5 6 -2 10 -18 11 -48 1 -125 14 -136 23 -6
5 -40 14 -76 20 -36 7 -76 14 -90 17 -14 2 -68 9 -120 15 -52 5 -111 14 -130
19 -37 9 -111 15 -320 27 -186 10 -757 6 -898 -6 -68 -6 -128 -9 -133 -5 -5 3
-9 1 -9 -4 0 -5 -24 -9 -52 -9 -71 0 -263 -31 -296 -49 -15 -8 -40 -14 -57
-14 -16 0 -48 -9 -69 -19 -22 -11 -45 -17 -52 -14 -6 2 -14 -2 -17 -10 -3 -8
-26 -20 -51 -27 -28 -8 -46 -18 -46 -27 0 -10 -6 -13 -16 -9 -9 4 -13 2 -8 -5
4 -7 1 -10 -7 -7 -7 2 -19 0 -26 -6 -45 -38 -70 -67 -87 -99 -10 -20 -22 -34
-26 -32 -4 3 -7 -7 -7 -22 0 -14 -8 -32 -18 -39 -15 -11 -18 -30 -19 -113 0
-54 -4 -94 -8 -88 -19 31 -5 -50 27 -148 38 -116 71 -186 130 -279 28 -44 39
-55 46 -45 7 9 7 5 3 -13 -6 -28 9 -40 20 -15 4 6 5 3 2 -9 -4 -22 61 -121 72
-110 3 4 0 12 -6 18 -7 7 -12 19 -12 27 0 9 7 3 15 -12 8 -15 12 -34 8 -42 -3
-9 1 -15 11 -15 9 0 16 -7 16 -16 0 -9 12 -30 26 -48 21 -24 25 -26 20 -9 -4
13 -2 24 5 29 8 4 9 3 5 -4 -4 -6 1 -23 10 -37 16 -24 16 -25 -1 -18 -17 6
-17 5 1 -13 10 -11 22 -16 25 -12 3 5 14 -1 24 -12 18 -20 18 -21 0 -14 -13 5
-16 4 -11 -4 4 -7 13 -12 19 -12 7 0 18 -9 25 -21 8 -12 9 -18 3 -14 -17 10
-13 -11 4 -25 11 -9 15 -9 15 -1 0 7 5 9 11 6 6 -4 8 -13 5 -21 -3 -8 -1 -14
4 -14 6 0 10 -10 10 -22 0 -18 2 -20 10 -8 7 11 11 9 19 -13 6 -16 11 -33 11
-38 0 -5 7 -9 15 -9 8 0 12 -6 9 -14 -3 -7 6 -26 19 -42 13 -16 27 -36 31 -44
4 -8 18 -33 31 -55 45 -76 128 -250 147 -310 57 -178 71 -319 43 -420 -9 -33
-18 -65 -19 -71 -1 -6 -9 -23 -19 -37 -9 -15 -17 -29 -17 -33 0 -4 -7 -14 -15
-23 -106 -113 -136 -137 -155 -126 -5 3 -10 2 -10 -4 0 -5 -10 -13 -22 -16
-43 -12 -78 -30 -78 -38 0 -5 -12 -8 -27 -7 -16 1 -30 1 -33 0 -3 -1 -21 -3
-40 -5 -19 -3 -53 -9 -75 -15 -47 -12 -253 -28 -450 -36 -105 -5 -174 -2 -275
12 -74 9 -147 17 -162 17 -16 0 -28 4 -28 8 0 5 -15 9 -33 9 -19 0 -48 7 -66
16 -18 9 -43 14 -56 11 -14 -2 -22 -1 -20 3 4 7 -91 40 -117 40 -8 0 -25 9
-38 20 -13 11 -30 20 -39 20 -9 0 -32 11 -51 24 -19 13 -60 35 -91 50 -32 14
-63 33 -70 42 -7 8 -18 13 -26 10 -8 -3 -17 4 -23 17 -5 12 -9 18 -9 14 -1 -5
-7 -2 -15 5 -8 7 -47 42 -88 78 -41 36 -94 89 -119 119 -24 29 -49 59 -54 65
-6 6 -21 29 -34 51 -85 143 -142 272 -156 353 -4 23 -11 42 -16 42 -6 0 -8 3
-6 8 3 4 1 34 -4 67 -19 133 -29 269 -20 278 10 10 51 -47 51 -70 0 -36 166
-346 181 -338 5 3 7 0 4 -7 -3 -7 6 -25 20 -40 14 -15 25 -32 25 -37 0 -18 18
-21 34 -5 19 18 21 11 5 -17 -14 -27 4 -48 36 -44 21 2 23 0 14 -18 -8 -14 -8
-18 0 -12 7 4 18 1 26 -5 18 -15 20 1 3 18 -7 7 -9 12 -4 12 4 0 14 -7 23 -15
11 -11 12 -19 5 -28 -13 -15 1 -42 17 -33 5 4 16 -2 23 -14 7 -11 17 -20 22
-20 4 0 3 7 -4 15 -16 20 0 19 28 -1 18 -12 26 -13 37 -4 11 9 15 9 15 1 0 -6
-4 -11 -10 -11 -5 0 -10 -4 -10 -10 0 -5 10 -10 23 -10 12 0 38 -13 57 -30 19
-16 41 -29 48 -30 7 0 20 -7 29 -15 9 -9 23 -13 34 -10 22 7 42 -2 33 -16 -4
-6 -10 -6 -18 0 -9 8 -13 7 -13 -4 0 -8 4 -12 8 -10 4 3 10 -2 13 -11 5 -13 9
-14 21 -4 19 15 65 5 65 -15 0 -8 7 -15 15 -15 8 0 15 -4 15 -10 0 -5 19 -10
43 -11 23 -1 53 -5 67 -9 l25 -8 -25 -2 -25 -2 27 -8 c15 -4 58 -11 95 -14 38
-3 91 -10 119 -14 81 -13 409 -5 499 12 120 22 225 74 225 112 0 7 6 14 13 14
8 0 7 3 -3 10 -12 7 -11 12 5 30 15 17 19 35 17 94 -2 130 -68 270 -260 561
-58 88 -108 162 -111 165 -24 21 -234 351 -283 446 -34 66 -64 121 -67 124 -3
3 -7 10 -9 15 -1 6 -18 56 -38 112 -115 337 -40 596 241 822 78 63 263 159
395 206 162 57 460 119 705 146 131 14 368 26 445 23 30 -2 177 -6 325 -9z
m-1560 -1105 c3 -5 1 -10 -4 -10 -6 0 -11 5 -11 10 0 6 2 10 4 10 3 0 8 -4 11
-10z m116 -313 c-10 -9 -11 -8 -5 6 3 10 9 15 12 12 3 -3 0 -11 -7 -18z m117
-162 c-3 -3 -9 2 -12 12 -6 14 -5 15 5 6 7 -7 10 -15 7 -18z m122 -129 c0 -2
-7 -7 -16 -10 -8 -3 -12 -2 -9 4 6 10 25 14 25 6z m40 -46 c0 -5 -4 -10 -10
-10 -5 0 -10 5 -10 10 0 6 5 10 10 10 6 0 10 -4 10 -10z m-1793 -742 c-3 -7
-5 -2 -5 12 0 14 2 19 5 13 2 -7 2 -19 0 -25z m1613 -167 c0 -6 -4 -12 -8 -15
-5 -3 -9 1 -9 9 0 8 4 15 9 15 4 0 8 -4 8 -9z"/>
</g>
</svg>
